<svg width="60" height="60" fill="none" xmlns="http://www.w3.org/2000/svg"><path d="M30 0C13.458 0 0 13.458 0 30s13.458 30 30 30 30-13.458 30-30S46.542 0 30 0zm0 54.545C16.466 54.545 5.455 43.535 5.455 30 5.455 16.466 16.465 5.455 30 5.455c13.534 0 24.545 11.01 24.545 24.545 0 13.534-11.01 24.545-24.545 24.545z" fill="#FAFAFA"/><path d="M37.328 37.328c-4.04 4.041-10.615 4.041-14.656 0a2.727 2.727 0 10-3.857 3.857A15.767 15.767 0 0030 45.811c4.05 0 8.102-1.542 11.185-4.626a2.727 2.727 0 10-3.857-3.857zM20.934 26.753A3.656 3.656 0 0022 24.182c0-.956-.387-1.895-1.066-2.571a3.664 3.664 0 00-2.57-1.066c-.959 0-1.895.39-2.572 1.066a3.657 3.657 0 00-1.065 2.57c0 .957.387 1.895 1.066 2.572a3.657 3.657 0 002.57 1.065c.957 0 1.895-.387 2.572-1.065zm20.702-6.207c-.956 0-1.894.389-2.57 1.065A3.662 3.662 0 0038 24.181c0 .96.39 1.895 1.065 2.572a3.657 3.657 0 002.571 1.065c.957 0 1.895-.387 2.571-1.065a3.66 3.66 0 001.066-2.571c0-.956-.39-1.895-1.066-2.571a3.664 3.664 0 00-2.57-1.066z" fill="#FAFAFA"/></svg>