<svg width="512" height="512" fill="none" xmlns="http://www.w3.org/2000/svg"><path d="M256.084 0C149.206 0 117.948.11 111.872.614c-21.933 1.824-35.58 5.278-50.45 12.683-11.458 5.692-20.495 12.29-29.414 21.538C15.764 51.7 5.92 72.45 2.357 97.115.624 109.089.12 111.53.017 172.693c-.039 20.387 0 47.218 0 83.207 0 106.82.119 138.054.63 144.12 1.773 21.348 5.12 34.78 12.207 49.471 13.546 28.123 39.417 49.235 69.895 57.113 10.553 2.718 22.209 4.214 37.172 4.923 6.34.276 70.958.473 135.615.473 64.658 0 129.315-.079 135.497-.394 17.326-.815 27.387-2.166 38.511-5.042 30.675-7.917 56.073-28.713 69.895-57.23 6.95-14.337 10.474-28.281 12.069-48.514.346-4.412.492-74.747.492-144.987 0-70.253-.157-140.458-.504-144.869-1.614-20.56-5.139-34.386-12.313-48.999-5.887-11.962-12.424-20.895-21.914-30.03-16.936-16.18-37.648-26.027-62.33-29.587C402.98.618 400.598.106 339.406 0h-83.322z" fill="url(#paint0_radial)"/><path d="M256.084 0C149.206 0 117.948.11 111.872.614c-21.933 1.824-35.58 5.278-50.45 12.683-11.458 5.692-20.495 12.29-29.414 21.538C15.764 51.7 5.92 72.45 2.357 97.115.624 109.089.12 111.53.017 172.693c-.039 20.387 0 47.218 0 83.207 0 106.82.119 138.054.63 144.12 1.773 21.348 5.12 34.78 12.207 49.471 13.546 28.123 39.417 49.235 69.895 57.113 10.553 2.718 22.209 4.214 37.172 4.923 6.34.276 70.958.473 135.615.473 64.658 0 129.315-.079 135.497-.394 17.326-.815 27.387-2.166 38.511-5.042 30.675-7.917 56.073-28.713 69.895-57.23 6.95-14.337 10.474-28.281 12.069-48.514.346-4.412.492-74.747.492-144.987 0-70.253-.157-140.458-.504-144.869-1.614-20.56-5.139-34.386-12.313-48.999-5.887-11.962-12.424-20.895-21.914-30.03-16.936-16.18-37.648-26.027-62.33-29.587C402.98.618 400.598.106 339.406 0h-83.322z" fill="url(#paint1_radial)"/><path d="M256.192 70c-50.563 0-56.908.221-76.767 1.125-19.82.907-33.349 4.045-45.186 8.65-12.245 4.755-22.633 11.116-32.981 21.469-10.356 10.348-16.717 20.736-21.488 32.977-4.615 11.842-7.757 25.375-8.65 45.188-.887 19.859-1.12 26.209-1.12 76.773 0 50.564.225 56.89 1.125 76.749.911 19.821 4.05 33.35 8.65 45.188 4.758 12.246 11.12 22.633 21.472 32.982 10.344 10.356 20.731 16.733 32.968 21.488 11.846 4.604 25.378 7.742 45.195 8.65 19.858.904 26.2 1.125 76.758 1.125 50.567 0 56.893-.221 76.752-1.125 19.82-.908 33.364-4.046 45.209-8.65 12.241-4.755 22.613-11.132 32.957-21.488 10.356-10.349 16.717-20.736 21.488-32.978 4.577-11.842 7.719-25.375 8.65-45.188.892-19.859 1.124-26.189 1.124-76.753s-.232-56.91-1.124-76.769c-.931-19.821-4.073-33.35-8.65-45.188-4.771-12.245-11.132-22.633-21.488-32.981-10.356-10.357-20.712-16.718-32.968-21.47-11.869-4.604-25.406-7.742-45.226-8.65C313.034 70.222 306.711 70 256.134 70h.058zm-16.702 33.552c4.957-.008 10.488 0 16.702 0 49.709 0 55.6.178 75.23 1.07 18.153.83 28.004 3.863 34.567 6.412 8.688 3.374 14.883 7.408 21.395 13.925 6.516 6.516 10.55 12.722 13.932 21.41 2.548 6.556 5.585 16.408 6.411 34.56.893 19.627 1.086 25.523 1.086 75.21s-.193 55.583-1.086 75.21c-.83 18.153-3.863 28.005-6.411 34.56-3.374 8.688-7.416 14.875-13.932 21.387-6.516 6.517-12.703 10.551-21.395 13.925-6.555 2.56-16.414 5.586-34.567 6.416-19.626.892-25.521 1.086-75.23 1.086-49.713 0-55.605-.194-75.231-1.086-18.152-.838-28.004-3.871-34.571-6.42-8.688-3.374-14.894-7.408-21.41-13.924-6.516-6.517-10.55-12.707-13.932-21.4-2.548-6.555-5.585-16.407-6.411-34.56-.893-19.626-1.071-25.522-1.071-75.24 0-49.719.178-55.583 1.071-75.21.83-18.153 3.863-28.005 6.411-34.568 3.374-8.688 7.416-14.894 13.932-21.411 6.516-6.516 12.722-10.55 21.41-13.932 6.563-2.56 16.419-5.586 34.571-6.42 17.175-.776 23.831-1.008 58.529-1.047v.047zm116.081 30.913c-12.334 0-22.341 9.996-22.341 22.335 0 12.334 10.007 22.341 22.341 22.341 12.334 0 22.341-10.007 22.341-22.341 0-12.335-10.007-22.342-22.341-22.342v.007zm-99.379 26.105c-52.801 0-95.61 42.81-95.61 95.612 0 52.802 42.809 95.593 95.61 95.593 52.8 0 95.593-42.791 95.593-95.593 0-52.802-42.797-95.612-95.597-95.612h.004zm0 33.551c34.272 0 62.058 27.784 62.058 62.061 0 34.273-27.786 62.06-62.058 62.06-34.276 0-62.059-27.787-62.059-62.06 0-34.277 27.783-62.061 62.059-62.061z" fill="#fff"/><defs><radialGradient id="paint0_radial" cx="0" cy="0" r="1" gradientUnits="userSpaceOnUse" gradientTransform="scale(471.95 507.43) rotate(-90 .687 .4)"><stop stop-color="#FD5"/><stop offset=".1" stop-color="#FD5"/><stop offset=".5" stop-color="#FF543E"/><stop offset="1" stop-color="#C837AB"/></radialGradient><radialGradient id="paint1_radial" cx="0" cy="0" r="1" gradientUnits="userSpaceOnUse" gradientTransform="matrix(44.5204 222.4109 -916.7881 183.51518 -85.763 36.884)"><stop stop-color="#3771C8"/><stop offset=".128" stop-color="#3771C8"/><stop offset="1" stop-color="#60F" stop-opacity="0"/></radialGradient></defs></svg>