<svg width="60" height="60" fill="none" xmlns="http://www.w3.org/2000/svg"><path d="M30 0C13.458 0 0 13.458 0 30s13.458 30 30 30 30-13.458 30-30S46.542 0 30 0zm0 54.545C16.466 54.545 5.455 43.535 5.455 30 5.455 16.465 16.465 5.455 30 5.455c13.534 0 24.545 11.01 24.545 24.545 0 13.534-11.01 24.545-24.545 24.545z" fill="#FAFAFA"/><path d="M30 32.695a15.714 15.714 0 00-11.185 4.633 2.727 2.727 0 103.857 3.857A10.296 10.296 0 0130 38.15c2.768 0 5.37 1.078 7.328 3.035a2.728 2.728 0 003.857-3.857A15.714 15.714 0 0030 32.695zm-9.066-5.942A3.656 3.656 0 0022 24.182c0-.957-.387-1.895-1.066-2.571a3.664 3.664 0 00-2.57-1.066 3.66 3.66 0 00-2.571 1.066 3.665 3.665 0 00-1.066 2.57c0 .957.39 1.895 1.066 2.572a3.664 3.664 0 002.57 1.065c.957 0 1.895-.389 2.572-1.065zm20.702-6.208a3.66 3.66 0 00-2.57 1.066A3.657 3.657 0 0038 24.18c0 .957.387 1.895 1.066 2.572a3.664 3.664 0 002.57 1.065c.957 0 1.895-.39 2.571-1.065a3.656 3.656 0 001.066-2.571c0-.957-.388-1.895-1.066-2.571a3.665 3.665 0 00-2.57-1.066z" fill="#FAFAFA"/></svg>