<svg width="512" height="512" fill="none" xmlns="http://www.w3.org/2000/svg"><path d="M256 512c141.385 0 256-114.615 256-256S397.385 0 256 0 0 114.615 0 256s114.615 256 256 256z" fill="url(#paint0_linear)"/><path d="M209.067 373.333c-8.294 0-6.884-3.131-9.745-11.029l-24.388-80.262 187.733-111.375" fill="#C8DAEA"/><path d="M209.066 373.333c6.4 0 9.227-2.926 12.8-6.4L256 333.743l-42.577-25.675" fill="#A9C9DD"/><path d="M213.419 308.075l103.168 76.221c11.774 6.496 20.269 3.132 23.202-10.929l41.995-197.894c4.299-17.237-6.571-25.058-17.835-19.945l-246.592 95.085c-16.832 6.752-16.731 16.143-3.067 20.327l63.281 19.752 146.502-92.426c6.916-4.195 13.265-1.942 8.056 2.683" fill="url(#paint1_linear)"/><defs><linearGradient id="paint0_linear" x1="341.504" y1="85.504" x2="213.504" y2="384" gradientUnits="userSpaceOnUse"><stop stop-color="#37AEE2"/><stop offset="1" stop-color="#1E96C8"/></linearGradient><linearGradient id="paint1_linear" x1="288.094" y1="256.02" x2="328.046" y2="347.047" gradientUnits="userSpaceOnUse"><stop stop-color="#EFF7FC"/><stop offset="1" stop-color="#fff"/></linearGradient></defs></svg>