<svg width="512" height="512" fill="none" xmlns="http://www.w3.org/2000/svg"><path fill-rule="evenodd" clip-rule="evenodd" d="M51.2 0h409.6C489.079 0 512 22.921 512 51.2v409.6c0 28.279-22.921 51.2-51.2 51.2H51.2C22.921 512 0 489.079 0 460.8V51.2C0 22.921 22.921 0 51.2 0z" fill="#010101"/><path fill-rule="evenodd" clip-rule="evenodd" d="M329.67 207.309c22.413 16.014 49.873 25.436 79.528 25.436v-57.038a80.47 80.47 0 01-16.702-1.747v44.898c-29.653 0-57.108-9.423-79.528-25.436V309.82c0 58.229-47.227 105.429-105.482 105.429-21.735 0-41.939-6.568-58.722-17.832 19.155 19.575 45.867 31.719 75.419 31.719 58.26 0 105.489-47.2 105.489-105.431V207.309h-.002zm20.603-57.544c-11.455-12.508-18.975-28.672-20.603-46.543v-7.336h-15.827c3.983 22.712 17.572 42.117 36.43 53.879zM185.609 352.736a48.015 48.015 0 01-9.842-29.197c0-26.632 21.602-48.224 48.252-48.224a48.363 48.363 0 0114.638 2.259v-58.313a106.535 106.535 0 00-16.696-.96v45.388a48.338 48.338 0 00-14.643-2.259c-26.651 0-48.251 21.592-48.251 48.226 0 18.831 10.797 35.138 26.542 43.08z" fill="#EE1D52"/><path fill-rule="evenodd" clip-rule="evenodd" d="M312.968 193.422c22.42 16.013 49.875 25.436 79.528 25.436V173.96c-16.552-3.523-31.205-12.17-42.223-24.195-18.858-11.762-32.447-31.167-36.43-53.88h-41.572v227.818c-.095 26.559-21.66 48.063-48.253 48.063-15.672 0-29.594-7.465-38.411-19.03-15.745-7.942-26.542-24.249-26.542-43.08 0-26.634 21.601-48.226 48.251-48.226 5.106 0 10.027.794 14.643 2.259v-45.388c-57.231 1.182-103.26 47.921-103.26 105.404 0 28.695 11.463 54.709 30.065 73.714 16.783 11.264 36.987 17.832 58.722 17.832 58.256 0 105.482-47.202 105.482-105.429v-116.4z" fill="#fff"/><path fill-rule="evenodd" clip-rule="evenodd" d="M392.496 173.959v-12.14a79.546 79.546 0 01-42.223-12.057 79.762 79.762 0 0042.223 24.197zm-78.653-78.074a81.07 81.07 0 01-.875-6.55V82h-57.401v227.82c-.092 26.556-21.655 48.06-48.251 48.06-7.809 0-15.179-1.851-21.708-5.145 8.816 11.565 22.738 19.03 38.41 19.03 26.591 0 48.158-21.504 48.253-48.062V95.885h41.572zm-91.881 122.416v-12.925a106.341 106.341 0 00-14.474-.981C149.227 204.395 102 251.597 102 309.82c0 36.503 18.561 68.673 46.766 87.597-18.602-19.006-30.065-45.02-30.065-73.714 0-57.481 46.027-104.221 103.261-105.402z" fill="#69C9D0"/></svg>