<svg width="512" height="512" fill="none" xmlns="http://www.w3.org/2000/svg"><g clip-path="url(#clip0)"><path d="M0 245.333C0 129.682 0 71.856 35.928 35.928S129.682 0 245.333 0h21.334c115.651 0 173.477 0 209.404 35.928C512 71.856 512 129.682 512 245.333v21.334c0 115.651 0 173.477-35.929 209.404C440.144 512 382.318 512 266.667 512h-21.334c-115.651 0-173.477 0-209.405-35.929C0 440.144 0 382.318 0 266.667v-21.334z" fill="#2787F5"/><path fill-rule="evenodd" clip-rule="evenodd" d="M138.676 160h-37.342c-10.669 0-12.803 5.022-12.803 10.558 0 9.889 12.66 58.933 58.946 123.798 30.858 44.298 74.333 68.311 113.895 68.311 23.736 0 26.673-5.334 26.673-14.52v-33.48c0-10.667 2.248-12.796 9.764-12.796 5.539 0 15.034 2.769 37.188 24.127 25.32 25.313 29.494 36.669 43.735 36.669h37.342c10.669 0 16.004-5.334 12.927-15.858-3.368-10.49-15.456-25.71-31.497-43.751-8.704-10.284-21.759-21.358-25.715-26.896-5.538-7.119-3.956-10.284 0-16.611 0 0 45.495-64.075 50.243-85.827 2.373-7.912 0-13.724-11.293-13.724h-37.342c-9.494 0-13.872 5.022-16.246 10.558 0 0-18.989 46.276-45.89 76.336-8.704 8.701-12.66 11.47-17.408 11.47-2.373 0-5.809-2.769-5.809-10.679v-73.961c0-9.494-2.755-13.724-10.669-13.724h-58.681c-5.932 0-9.501 4.405-9.501 8.581 0 8.999 13.45 11.074 14.837 36.388v54.978c0 12.053-2.178 14.239-6.925 14.239-12.659 0-43.453-46.484-61.716-99.672C151.81 164.176 148.22 160 138.676 160z" fill="#fff"/></g><defs><clipPath id="clip0"><path fill="#fff" d="M0 0h512v512H0z"/></clipPath></defs></svg>