<svg width="1920" height="300" fill="none" xmlns="http://www.w3.org/2000/svg"><g clip-path="url(#clip0)" fill-rule="evenodd" clip-rule="evenodd" fill="#282828"><path d="M1295.32.382c178.12 0 374.68 72.79 557.15 140.364l.01.006c22.75 8.423 45.28 16.765 67.52 24.875v63.414c-18.83-7.529-37.85-15.212-57.03-22.957v-.001c-183.26-74.015-380.67-153.743-561.86-160.07-175.52-6.13-315.074 38.46-450.847 81.839-125.802 40.194-248.356 79.35-393.259 76.162C254.788 199.567 87.42 121.862 0 65.044V53.022c81.275 54.284 258.279 137.534 471.938 134.725 142.384-1.872 261.373-45.281 383.515-89.84C987.276 49.813 1122.77.381 1295.32.381z"/><path d="M1860.16 240.405c-184.85-77.355-383.98-160.68-567.87-170.318-178.15-9.336-320.627 32.696-459.243 73.59-128.437 37.889-253.556 74.801-400.657 68.966C211.653 203.887 33.265 111.175-47.806 52.567L-62 323.412l1982.28 103.887 8.3-158.394c-22.55-9.304-45.37-18.856-68.42-28.5z"/></g><defs><clipPath id="clip0"><path fill="#fff" d="M0 0h1920v300H0z"/></clipPath></defs></svg>