<svg width="512" height="512" fill="none" xmlns="http://www.w3.org/2000/svg"><path d="M420.422 503.234c-109.504 11.688-219.34 11.688-328.844 0-43.664-4.66-78.152-39.148-82.812-82.816-11.688-109.504-11.688-219.336 0-328.84 4.66-43.664 39.148-78.152 82.812-82.812 109.504-11.688 219.336-11.688 328.84 0 43.668 4.66 78.156 39.148 82.816 82.812 11.688 109.504 11.688 219.336 0 328.84-4.66 43.668-39.144 78.156-82.812 82.816z" fill="#fff"/><path d="M424.644 170.726a44.228 44.228 0 00-31.12-31.326C366.074 132 256 132 256 132s-110.074 0-137.524 7.4a44.222 44.222 0 00-31.12 31.322C80 198.354 80 256 80 256s0 57.646 7.356 85.274a44.229 44.229 0 0031.12 31.326C145.926 380 256 380 256 380s110.074 0 137.524-7.4a44.212 44.212 0 0019.748-11.5 44.215 44.215 0 0011.372-19.822C432 313.646 432 256 432 256s0-57.646-7.356-85.274z" fill="red"/><path d="M220 308.338L312 256l-92-52.338v104.676z" fill="#fff"/></svg>